# xmcd
#
# Track frame offsets: 
#        150
#        10930
#        26381
#        37199
#        48375
#        62886
#        74008
#        86363
#        102755
#        117652
#        129428
#        141128
#
# Disc length: 2064 seconds
#
# Revision: 0
# Processed by: cddbd v1.5.2PL0 Copyright (c) Steve Scherf et al.
# Submitted via: ExactAudioCopy v0.95b4
#
DISCID=a8080e0c
DTITLE=Yardbirds - Yardbirds
DYEAR=1900
DGENRE=Blues
TTITLE0=Jeff's boogie
TTITLE1=The train kept a-rollin'
TTITLE2=Evil hearted you
TTITLE3=For your love
TTITLE4=Lost woman
TTITLE5=Heart full of soul
TTITLE6=Good morning little schoolgirl
TTITLE7=I ain't done wrong
TTITLE8=What do you want
TTITLE9=I'm a man
TTITLE10=Shapes of things
TTITLE11=The nazz are blue
EXTD=
EXTT0=
EXTT1=
EXTT2=
EXTT3=
EXTT4=
EXTT5=
EXTT6=
EXTT7=
EXTT8=
EXTT9=
EXTT10=
EXTT11=
PLAYORDER=
